{"title":"Our.Mother's.House.1967.HQ.720p.x264.AC3.[FrOnkY]","uid":12001758,"size":2881385285,"categoryP":"video","categoryS":"hd___movies","magnet":"?xt=urn:btih:3ec3d343bf000aca80b2d3f8d5a5ee82881839ad&amp;dn=Our.Mother%27s.House.1967.HQ.720p.x264.AC3.%5BFrOnkY%5D&amp;tr=udp%3A%2F%2Ftracker.openbittorrent.com%3A80&amp;tr=udp%3A%2F%2Fopen.demonii.com%3A1337&amp;tr=udp%3A%2F%2Ftracker.coppersurfer.tk%3A6969&amp;tr=udp%3A%2F%2Fexodus.desync.com%3A6969","seeders":0,"leechers":1,"uploader":"HDmEntEs","files":1,"time":1433800996,"description":"Our.Mother's.House.1967.HQ.720p.x264.AC3.[FrOnkY].mkv\n\n\nFormat                                   : Matroska\nFormat version                           : Version 4 / Version 2\nFile size                                : 2.68 GiB\nDuration                                 : 1h 45mn\nOverall bit rate                         : 3 650 Kbps\nWriting application                      : mkvmerge v6.9.1 ('Blue Panther') 32bit\nWriting library                          : libebml v1.3.0 + libmatroska v1.4.1\nAttachements                             : OurMother'sHouse1.jpg / OurMother'sHouse2.jpg\n\nVideo\nID                                       : 1\nFormat                                   : AVC\nFormat/Info                              : Advanced Video Codec\nFormat profile                           : High L4.1\nFormat settings, CABAC                   : Yes\nFormat settings, ReFrames                : 9 frames\nCodec ID                                 : V_MPEG4/ISO/AVC\nDuration                                 : 1h 45mn\nBit rate                                 : 3 456 Kbps\nWidth                                    : 1 200 pixels\nHeight                                   : 720 pixels\nDisplay aspect ratio                     : 1.667\nFrame rate mode                          : Constant\nFrame rate                               : 23.976 fps\nColor space                              : YUV\nChroma subsampling                       : 4:2:0\nBit depth                                : 8 bits\nScan type                                : Progressive\nBits/(Pixel*Frame)                       : 0.167\nStream size                              : 2.49 GiB (93%)\nWriting library                          : x264 core 142 r2491 24e4fed\nLanguage                                 : English\nDefault                                  : Yes\nForced                                   : No\n\nAudio\nID                                       : 2\nFormat                                   : AC-3\nFormat/Info                              : Audio Coding 3\nMode extension                           : CM (complete main)\nFormat settings, Endianness              : Big\nCodec ID                                 : A_AC3\nDuration                                 : 1h 45mn\nBit rate mode                            : Constant\nBit rate                                 : 192 Kbps\nChannel(s)                               : 2 channels\nChannel positions                        : Front: L R\nSampling rate                            : 48.0 KHz\nBit depth                                : 16 bits\nStream size                              : 145 MiB (5%)\nLanguage                                 : English\nDefault                                  : No\nForced                                   : No\n\nText #1\nID                                       : 3\nFormat                                   : UTF-8\nCodec ID                                 : S_TEXT/UTF8\nCodec ID/Info                            : UTF-8 Plain Text\nLanguage                                 : Spanish\nDefault                                  : No\nForced                                   : No\n\nText #2\nID                                       : 4\nFormat                                   : UTF-8\nCodec ID                                 : S_TEXT/UTF8\nCodec ID/Info                            : UTF-8 Plain Text\nLanguage                                 : English\nDefault                                  : No\nForced                                   : No\n\nMenu\n00:00:00.000                             : en:Chapter 01\n00:01:06.111                             : en:Chapter 02\n00:02:34.999                             : en:Chapter 03\n00:04:02.111                             : en:Chapter 04\n00:07:11.000                             : en:Chapter 05\n00:12:28.000                             : en:Chapter 06\n00:15:19.000                             : en:Chapter 07\n00:18:49.000                             : en:Chapter 08\n00:24:32.000                             : en:Chapter 09\n00:28:00.000                             : en:Chapter 10\n00:30:07.000                             : en:Chapter 11\n00:33:19.000                             : en:Chapter 12\n00:36:58.000                             : en:Chapter 13\n00:40:34.000                             : en:Chapter 14\n00:43:30.000                             : en:Chapter 15\n00:47:13.000                             : en:Chapter 16\n00:49:16.000                             : en:Chapter 17\n00:51:32.000                             : en:Chapter 18\n00:54:36.000                             : en:Chapter 19\n00:58:17.000                             : en:Chapter 20\n01:00:47.000                             : en:Chapter 21\n01:04:36.000                             : en:Chapter 22\n01:08:32.000                             : en:Chapter 23\n01:13:31.000                             : en:Chapter 24\n01:16:17.000                             : en:Chapter 25\n01:19:38.000                             : en:Chapter 26\n01:25:38.000                             : en:Chapter 27\n01:30:23.000                             : en:Chapter 28\n01:35:23.000                             : en:Chapter 29\n01:40:50.000                             : en:Chapter 30\n01:43:45.000                             : en:Chapter 31\n\n\nSD - HQ\n &lt;a href=&quot;\nhttp://i.imgur.com/IxjrJWr.png&quot; rel=&quot;nofollow&quot; target=&quot;_NEW&quot;&gt;\nhttp://i.imgur.com/IxjrJWr.png&lt;/a&gt; &lt;a href=&quot;\nhttp://i.imgur.com/xMCZQ2m.jpg&quot; rel=&quot;nofollow&quot; target=&quot;_NEW&quot;&gt;\nhttp://i.imgur.com/xMCZQ2m.jpg&lt;/a&gt;","torrent":{"xt":"urn:btih:3ec3d343bf000aca80b2d3f8d5a5ee82881839ad","amp;dn":"Our.Mother%27s.House.1967.HQ.720p.x264.AC3.%5BFrOnkY%5D","amp;tr":["udp%3A%2F%2Ftracker.openbittorrent.com%3A80","udp%3A%2F%2Fopen.demonii.com%3A1337","udp%3A%2F%2Ftracker.coppersurfer.tk%3A6969","udp%3A%2F%2Fexodus.desync.com%3A6969"],"infoHash":"3ec3d343bf000aca80b2d3f8d5a5ee82881839ad","infoHashBuffer":{"type":"Buffer","data":[62,195,211,67,191,0,10,202,128,178,211,248,213,165,238,130,136,24,57,173]},"announce":[],"urlList":[]}}